<svg enable-background="new 0 0 130.5 109.4" viewBox="0 0 130.5 109.4" xmlns="http://www.w3.org/2000/svg" xmlns:xlink="http://www.w3.org/1999/xlink"><linearGradient id="a" gradientTransform="matrix(130.4927 0 0 -109.4496 23088.1055 32576.7012)" gradientUnits="userSpaceOnUse" x1="-176.3208" x2="-176.1293" y1="297.1779" y2="296.8123"><stop offset="0" stop-color="#eff7fc"/><stop offset="1" stop-color="#fff"/></linearGradient><path d="m49.1 102.8c-3.9 0-3.2-1.5-4.6-5.2l-11.4-37.6 88-52.2" fill="#c8daea"/><path d="m49.1 102.8c3 0 4.3-1.4 6-3l16-15.6-20-12" fill="#a9c9dd"/><path d="m51.1 72.2 48.4 35.8c5.5 3 9.5 1.5 10.9-5.1l19.6-92.8c2-8.1-3.1-11.7-8.4-9.3l-115.5 44.5c-7.9 3.2-7.8 7.6-1.4 9.5l29.7 9.3 68.6-43.3c3.2-2 6.2-.9 3.8 1.3" fill="url(#a)"/></svg>