<?xml version="1.0" encoding="utf-8"?>
<!-- Generator: Adobe Illustrator 21.1.0, SVG Export Plug-In . SVG Version: 6.00 Build 0)  -->
<svg version="1.1" id="Layer_1" xmlns="http://www.w3.org/2000/svg" xmlns:xlink="http://www.w3.org/1999/xlink" x="0px" y="0px"
	 viewBox="0 0 130.5 109.4" style="enable-background:new 0 0 130.5 109.4;" xml:space="preserve">
<style type="text/css">
	.st0{fill:#C8DAEA;}
	.st1{fill:#A9C9DD;}
	.st2{fill:url(#SVGID_1_);}
</style>
<path class="st0" d="M49.1,102.8c-3.9,0-3.2-1.5-4.6-5.2L33.1,60l88-52.2"/>
<path class="st1" d="M49.1,102.8c3,0,4.3-1.4,6-3l16-15.6l-20-12"/>
<linearGradient id="SVGID_1_" gradientUnits="userSpaceOnUse" x1="-176.3208" y1="297.1779" x2="-176.1293" y2="296.8123" gradientTransform="matrix(130.4927 0 0 -109.4496 23088.1055 32576.7012)">
	<stop  offset="0" style="stop-color:#EFF7FC"/>
	<stop  offset="1" style="stop-color:#FFFFFF"/>
</linearGradient>
<path class="st2" d="M51.1,72.2L99.5,108c5.5,3,9.5,1.5,10.9-5.1L130,10.1c2-8.1-3.1-11.7-8.4-9.3L6.1,45.3
	c-7.9,3.2-7.8,7.6-1.4,9.5l29.7,9.3L103,20.8c3.2-2,6.2-0.9,3.8,1.3"/>
</svg>
